<svg xmlns="http://www.w3.org/2000/svg" xmlns:xlink="http://www.w3.org/1999/xlink" version="1.1" x="0px" y="0px" viewBox="0 0 100 125" enable-background="new 0 0 100 100" xml:space="preserve"><g><g><path d="M75.4,54.3C75.4,54.2,75.4,54.2,75.4,54.3L81.9,39c0.7-1.3,0.6-2.9-0.2-4.3c0,0,0,0,0-0.1c-0.8-1.3-2.2-2.1-3.7-2.2    l-47.5-3v-5.9c0-0.9-0.8-1.7-1.7-1.7h-9.4c-0.9,0-1.7,0.8-1.7,1.7s0.8,1.7,1.7,1.7h7.7v5.8c0,0,0,0,0,0c0,0.1,0,0.2,0,0.3    c0,0.1,0.1,0.3,0.1,0.4l8,25.5c0,0,0,0,0,0l-1.6,4.9c-0.2,0.5-0.1,1.1,0.2,1.5c0.3,0.4,0.8,0.7,1.4,0.7h38.9    c0.9,0,1.7-0.8,1.7-1.7S75.1,61,74.2,61H37.6l0.8-2.6l33-1.5v0C73.2,56.8,74.7,55.8,75.4,54.3z M71.3,53.5L38.5,55    c-0.2-0.2-0.4-0.3-0.6-0.4L31.2,33v0l46.6,2.9c0,0,0.1,0,0.1,0c0.3,0,0.6,0.2,0.8,0.5c0.2,0.3,0.2,0.7,0.1,1c0,0,0,0.1-0.1,0.1    l-6.5,15.3C72.1,53.2,71.7,53.5,71.3,53.5z"/></g><g><path d="M38.1,66.2c-3.3,0-6,2.7-6,6c0,3.3,2.7,6,6,6c3.3,0,6-2.7,6-6C44.1,68.8,41.4,66.2,38.1,66.2z M38.1,74.7    c-1.4,0-2.5-1.1-2.5-2.5c0-1.4,1.1-2.5,2.5-2.5c1.4,0,2.5,1.1,2.5,2.5C40.7,73.5,39.5,74.7,38.1,74.7z"/></g><g><path d="M69.9,66.2c-3.3,0-6,2.7-6,6c0,3.3,2.7,6,6,6c3.3,0,6-2.7,6-6C75.9,68.8,73.2,66.2,69.9,66.2z M69.9,74.7    c-1.4,0-2.5-1.1-2.5-2.5c0-1.4,1.1-2.5,2.5-2.5c1.4,0,2.5,1.1,2.5,2.5C72.4,73.5,71.3,74.7,69.9,74.7z"/></g></g></svg>
