<svg height="998" viewBox="0 0 1776 998" width="1776" xmlns="http://www.w3.org/2000/svg" xmlns:xlink="http://www.w3.org/1999/xlink"><mask id="a" fill="#fff"><path d="m0 0h608v902h-608z" fill="#fff" fill-rule="evenodd"/></mask><mask id="b" fill="#fff"><path d="m0 0h13v10h-13z" fill="#fff" fill-rule="evenodd"/></mask><mask id="c" fill="#fff"><path d="m1 998h1775v-998h-1775z" fill="#fff" fill-rule="evenodd"/></mask><g fill="#060c0e" fill-rule="evenodd"><path d="m509.017692 153.378616-15.739498 21.812532-24.071204-14.039967-3.175947-8.825357-19.525887-4.071343 5.221752-13.817894 12.266579 3.635422 19.748617-23.103846-4.990774-4.523716-9.767069 12.674628-4.438076-.008225-4.867036-9.721875 6.805601-6.571725-1.36112-2.714229-6.129166 2.492156-2.730489-2.944527s2.499511-8.1426872 2.499511-8.1509122c0 0-4.990774-2.4839308-4.990774-2.4839308l-2.969716 13.653395-4.982525 2.640204.461956 9.055655-14.766091 10.420995-7.036579-2.952752-2.953218 2.722454 15.896233 23.087396-4.768045 4.079569-7.292304 1.505163-5.592967 8.060438-23.502008-14.492338-35.74384 35.646875 2.746988 19.180552 32.996852 21.94413 8.249213 24.67481 6.533377-2.747129-1.031152-27.421938 24.74764-32.899746-8.158472-22.02638 3.728644-8.677308 9.32986-.625095 36.700749 19.229901 1.245631 19.229902h4.974276l8.711169-11.794559h6.211657l27.997829 55.822644 11.812873 55.197549-36.560512-4.910287-3.25019-14.319615-16.787148 4.342767 11.788125 26.426721-74.242918 38.377554-41.246065 49.349619 1.072398 29.10805-13.066754 1.850611-15.549766-27.898985-60.450234 18.876229-4.858786 36.313095 18.610224 7.558717 20.581787-19.345051 14.922827 13.020074 2.491262 24.814634 19.748616 28.112833 104.484533 2.747129 82.49213 63.052363 54.997504 21.935906 5.502225 27.413713-24.747639 65.799492-35.974818 19.789197-78.375774 122.798303 1.608597 49.333169h16.498426l2.746988 16.449873-32.996852 5.477807-30.241616-46.60249-8.249213-186.434636-54.997503-84.988269 16.498426-43.871811-19.245414-16.449873-23.699989-10.503244-7.869749-11.111889-32.963856-17.987936-19.28666 1.858835-36.313036-26.681694-34.539455-64.261429-4.124607-1.538063s28.352546 63.225087 28.352546 63.225087l-6.698361-1.028117-60.837947-104.686992 16.498426-101.446367-41.246065-101.446367-50.4191902-21.434184-22.7925757 27.150515-10.1382828 3.783471-50.00672967 18.300484-4.43807663-3.150151 48.1176598-23.350595 5.0650169-8.841807-9.4948443-1.89996-10.3857592-34.421359 32.9968522-68.5383962 19.2454141-2.7471288 5.5022251-27.41371335 68.7406924-5.48603265 61.53088 35.1287038 51.211115 14.2209153 57.744492 38.3857787 41.246065-2.7389039 23.543254-63.743258 39.703463 9.7629997-22.685336 25.1929805 2.062303 30.8435119 7.729513 9.7629997 8.249213-12.8473508-8.760665-10.7993417 4.636058-23.1285215 23.716488-15.4217559 6.186909 2.5661802 39.356996 14.9118099.857918 15.931702 20.111582 33.4179171.511451 10.791117 9.280365 20.052395-13.644199 16.433423-7.292304-6.127578-2.722241 4.293417z" mask="url(#a)" transform="translate(25 95)"/><path d="m.56502522 6.25407166-.56723523 3.74592834 13.00221001-5.61889251-.5598685-4.38110749z" mask="url(#b)" transform="translate(0 273)"/><path d="m475 569-3.017149-10.58058-18.102897-3.304787-25.945884-8.590695-40.431402-16.523938-17.502668 4.628456 7.242759 8.590694 27.154345 3.971005 38.014481 19.81996z"/><path d="m400 561.853448 10.291805 7.146552 7.708195-1.956897-7.708195-10.396551-9.643771-.646552z"/><path d="m521.287541 956.302588-1.287541 9.75647 14.145902 1.940942 3.854098-5.193099-3.206063-7.806901z"/><path d="m404 115.415385-8.2-8.888123-14.35 8.888123h-8.7166l-12.8084-9.415385-36.3916 20.395815-1.5334 8.896493 18.45.527261 4.1 5.749662-15.8916 2.619569s-2.5584 8.360862-2.5584 9.934277c0 1.565046 19.9916 16.2112 19.9916 16.2112l39.9668 3.665723 8.7166-10.461538s-6.15-10.461539-6.6584-12.553847c-.5166-2.092307 3.5834-19.876923 3.5834-19.876923z"/><path d="m361 104.162393-8.963601-15.4871793-16.889045-2.6752137-2.633375 7.4786325-19.513979 21.3675215 9.49534 10.153846z"/><path d="m385.577568 95.862069 41.894392 2.137931 2.52804-13.8965517-6.566443-5.8835862 1.518439-9.6206897-9.086406-1.0689655-1.009601 17.6422069-8.577568 1.0689655-4.547241-19.2413793-24.73118 14.4353103z"/><path d="m364 72.252 2.350282 4.496 5.649718-7.496z"/><path d="m383.590551 61.3102175 5.409449-12.3102175-31 10.7755437 4.425197 9.2244563z"/><path d="m425 51.9533751c-1.0625-1.6917189-15.402-3.9533751-15.402-3.9533751l-1.598 8.4766875 10.625 4.5233125z"/><path d="m432 41-13 .496v4l9.412804 3.504z"/><path d="m448.896594 105 4.103406-15.037037-3.594584-13.962963-16.405416 1.6068148 1.534674 20.416z"/><path d="m458.748 115 2-11.443662-3.496-1.556338-4 8.322663z"/><path d="m532.742856 37.3789677 21.64596 2.5563871-22.157217 2.5645807-5.34346 6.4155484 2.762437 13.044129s-17.506428 4.6293548-17.506428 4.6293548l-5.689796 13.8061291-30.403297 5.6289677-12.888623-7.1693548s-4.634297 7.6855484-4.12304 9.7339355c.519503 2.0483871 8.254326 5.6289677 8.254326 5.6289677l-4.131286 21.5162581 21.654206 9.217742 22.668474 2.048387 6.704063-11.266129-7.21532-8.193548-26.280257-4.096775.511257-5.1291609 18.55368 2.5645809 17.52292 5.637161 14.950144-3.588774-1.03076-9.7339356 10.818857-9.217742 6.18456.5161936 2.581023-10.2419355 6.695817-4.0967742 3.611783-6.6531613 45.864698-26.1210323 18.042423-13.8225161-.519503-9.2259355-36.076601-13.8225161-5.1538 3.07258065-4.12304-3.58058065-14.941897 2.0483871-3.09228 5.11277419-2.581023-2.5563871-12.36912 3.07258065-2.06152 4.09677416-3.611783-3.07258061-17.003417 6.65316131 1.550263 13.3227097z"/><path d="m490.137221 64.0385273 8.010302 3.9614727 8.33516-8.1447879 15.182815-3.7396303.53003-10.4028274 4.804472-5.9422091-10.147523-6.9325773 1.06861-8.9053907-3.735861-6.9325773-16.037703 11.8844182s-7.480272 13.8572316-7.480272 15.3467454c0 1.4815908 1.60719 6.4413547 1.60719 6.4413547l-4.274441 3.9614727z"/><path d="m481 58.1764706-7.496-3.1764706-2.504 16.4075294 6 1.5924706z"/><path d="m482 76.5-8-1v3l6 2z"/><path d="m453.808333 65.2681159 10.933334 2.7318841 6.258333-18.5978261-2.091667-10.4021739-9.891666.5428744-3.125 9.3076691-7.808334.5516304-2.083333 3.8263889 8.325 4.3780193z"/><path d="m441 67.748-.496-7-5.504-.496 1 7.496z"/><path d="m727.088773 186.55501 18.627869-31.971133v-39.353485l32.283358-50.4188455-9.936513-8.6072988-22.346845 1.2249476-6.20929-8.6072988 11.173423-7.3741849-28.564381-18.4477116-54.63845 9.8404128-6.20929 9.8322465-7.4462-6.1492372-18.627869-2.4580616-47.184004 25.8300628-1.245156 8.6072988-34.765425 18.4477116 6.20929 33.1960813 32.283358 6.149237-6.20929 89.772331 12.418579 65.183547 21.109936 14.74837 19.873025-43.036494 22.346846-7.374185 16.145802-12.298474 50.911227-30.746187z"/><path d="m757 256.078086-6.283549-12.521411-25.134196 2.282116-3.763454-6.838791-10.055347 4.556675-3.763454 17.070529 26.385899 11.372796z"/><path d="m879.38975 132 2.511323-12.709955 5.022646-8.895281 7.542312 12.709955 7.533969-7.629349-27.707986-32.47537-21.292014 13.418877 17.595948 34.306752z"/><path d="m909 86.4943585-22.49973-5.4943585-8.50027 3.8666945 19.716604 15.1333055z"/><path d="m987 67.188-4.07201-6.188-8.819975 3.0977143-6.108015 4.9474286 8.144021 4.9548571z"/><path d="m1025 50.6505471-4.98325-5.6505471-11.8268 6.3536887-8.09124-1.4147547-8.09871 7.0653018 13.70206 11.9957642z"/><path d="m1162 57-4.66892-18.9713333-35.89126-20.0286667-3.43982 18.7806667 22.68466 13z"/><path d="m1173.5461 68 4.7305-8.3076923 4.7234-9.6950769-10.04255-8.9972308-2.95745 2.0769231.58865 15.228z"/><path d="m1152 954.995716 8.00367 5.004284 4.99633-8.003672-10.9951-4.996328z"/><path d="m1047.73713 747.142483-.57778 15.782509-5.15935 8.770826v19.2925l19.48997 7.011682 23.51003-65.478327-11.46612-10.521673z"/><path d="m1506.40143 444.864865-15.40143 21.681081 9.24086 14.454054 3.98384-3.336822s.5257-11.596281.5257-11.60454l41.69475-21.193773v-25.810811l-9.24086-25.810811 8.44409-.999394 7.35162-5.8064-4.1974-12.645233-13.65183-3.262486-4.10705-30.972973-22.58877-49.556757-3.08028 4.12973 17.72602 50.655265 4.92846 31.080346-3.87706 15.321297 4.19741 11.075935v29.007222z"/><path d="m1018.424 210.664.488-4.84-4.856-.488-.968 5.328z"/><path d="m1051.50259 191 5.99904-4.944187-16.00019-13.347673 4.00211-24.712776 26.49645-37.081401-8.99443-7.913963-10.00116 9.888374-9.00268 3.467458-15.00173 18.283701 1.00672 42.515112z"/><path d="m1067.29887 448.315 4.14924-14.879054-21.42126-29.049189 20.72972-14.879054 4.14923 3.462162-9.67331 10.724459 12.78524 17.640541 3.44947 11.070676 7.60693 19.717837zm-46.63775-20.41027h-52.170058l-14.859865-6.569865 13.822556-25.249054 7.261163 2.077297 12.439477 10.37 7.598701-3.453919-1.728849-7.962973 6.907162-1.030405 2.757923 11.062432 20.39218 12.801757zm527.04359-358.9108111-27.92502 7.5013514 8.47959 8.4822973-2.99667 4.9954054-15.46084-4.4925676-32.42003 9.487973-11.47626-11.4828379-20.44981 6.4874325-10.48011.5028378-20.44981-10.9882432-45.39463 7.4848648 8.4796 14.4833786-26.43492 9.487973 1.49833 9.496216-6.48729 1.994865-17.96356-23.4767569-27.92502-3.997973-1.9923 7.9959459-18.9597.502838-28.93763-1.005676-6.98126 10.485406-4.48677 2.003108 3.48239-38.9575678-32.92221-6.9985135-19.94762-11.9856757-8.47959 10.9882432 3.49063 14.4916217-14.4647 6.4874324-23.94044 29.4613517 4.48677 13.494189-23.44647 11.985676 25.94096 17.978513-2.49449 5.49-25.93272-18.473108-7.49168 13.98054 13.97074 32.96473 14.96689.502838 3.98459 6.99027-.99615 3.000541-4.98896-6.001081-8.97355-.494595-5.49115 24.474189-6.4873-2.505946 4.49501-16.478243-20.952-48.44554-8.47959-1.994865-2.99667-5.992838-5.98511-.997433-1.99229 29.96419 3.98458 14.986216 14.96689 9.990811-3.99282 2.992297-20.94376-11.491081-19.95585-1.994865-5.97688 3.495135 13.46855 7.484865-8.48782 3.495135-21.94814 3.495135-26.43492 17.483919-2.99667-12.983108-4.98073 1.994865 2.48625 13.485946-6.973026 6.99027-9.483969 14.483379-9.977926-.997433-2.486249 2.992297 5.48292 6.001082-2.494482 4.50081-13.970742-8.993378-2.000525-14.483378 16.465224.997432 9.977926-12.991351-48.391294-24.968784-20.449808-5.992838-37.902945 20.979054-14.966889 36.459865-32.428259 28.975 3.992817 27.466486 10.974072 5.984595 13.468553-9.982568 6.479066 22.973919 8.981779 3.495136 13.970743-7.484865-.502189-4.500811 1.004378-10.485406 6.479066-2.497702.493957-9.487973-6.973023-5.003649-2.000524-13.98054 11.476261-15.983649 6.981255-16.486487 10.974072 3.495136-13.970743 21.976486.996146 17.986757 6.487298 4.987162 27.439296-1.994865-2.000525 7.987703-21.948143 1.50027-.996146 5.498243 5.482919 3.997973-2.486248 3.495135-5.993342-.997432-5.985109 11.977432 7.977401 9.496217-2.988438 2.497702-14.966889-3.997973-20.449808 5.49-12.472407 1.500271-5.985109-1.994865 1.498335-4.995406 1.498336-9.496216-2.502714-3.98973-6.479066 6.495676 1.498335 15.480811-15.469077 5.498243-19.453663 21.473649-15.748986 6.759459-12.554734 2.687298v4.039189l12.110173 9.43027 4.033979 21.556081-32.732865-.445135-2.692064 17.953784-2.23927 12.570946 1.786476 7.633243 10.315463 8.078378 3.589419.906757 2.23927-2.69554 17.041507-.898514 9.418108-7.633243 2.247504-11.227297 11.204584-9.422028 6.726044-12.579189 12.554734 3.140676 10.768256-10.773919 17.486068 17.071757 16.144152 8.976892 3.581186 10.773919-16.135919 1.335405-.452794 3.148919 13.904882 5.836216.897355-4.929459 8.520753-6.289595-2.692064-11.672432 6.726044 5.836216 1.794709-2.695541-5.828689-6.289594-27.258178-21.547838 1.794709-6.297838 32.634074 25.150135 5.985109 19.80027 19.758269 17.986757 11.673844 6.297838 4.495006-3.594054-15.271495-9.891892 1.794709-6.297838-6.289716-13.485946 9.879135-2.703783 13.468553 24.284594 39.516538 4.492568-8.076193 23.386081-66.461876-9.900135-7.187071 13.494189-41.303014-17.986757-4.495006-18.88527-81.716907 9.891892-43.105956 58.452838-15.263263 59.343108 43.995079 55.749054 63.761579-12.579189 27.842694 11.688918-4.495006 20.682298 26.945339 52.146757-14.365908 31.472702 38.619183 106.107027 39.508305.906757 48.490085-53.061757 2.7003-21.580811 30.52652-31.472702v-46.755676l58.37745-80.025405-2.69206-17.088244-41.31125 1.797027-54.779798-89.027027 10.776488-3.58581 39.64003 64.404459 11.55859 18.778108 49.39567-18.547297 32.93045-32.972973-21.61061-12.364865-7.20354-9.273649-10.29076 8.243244-26.75599-26.790541 4.11631-5.152027 24.69783 19.577703 13.378-4.121622 5.14538 11.33446 50.42475 4.121621 22.63968 23.699325 11.31984 2.06081-1.02908 12.364865 29.84322 53.581081 9.26169-1.030405 7.20354 15.456081 8.23261-5.152027-8.23261-46.368243 51.45382-40.185811 14.40707 19.577703 4.11631 12.364864 12.34892 2.060811 8.23261 10.304054 3.08723 29.881757 7.20353 4.121622 4.11631 11.334459 21.61061 21.638514v-12.364865l-18.52338-26.790541-1.02908-18.547297 27.78507 19.577703 22.63968-20.608108-22.63968-35.033784 6.17446-13.39527 6.17446 4.121621-1.02908 7.212838 10.29077 3.091216 5.14538-13.39527 32.93045-17.516892 16.46522-41.216216-18.52338-35.033784 9.26169-16.486486-20.58153-4.121622v-4.121622l24.69784-1.030405 20.58153 29.881757 13.37799-5.152027-9.26169-34.003379 19.55246-22.668919 21.6106-52.550675-19.55245-52.550676-22.63968-6.182432 3.08723-39.155406 30.87229-14.425676 13.378 4.121622 14.40707-6.182432-4.11631-10.304054 2.05815-18.547298 24.69784 5.152027-8.23261 35.033784 26.75599 65.945946-3.08723 7.212838 7.20353 8.243243 9.78035-17.516892-1.54774-24.218648 4.11631-9.78473-3.08723-11.33446 3.08723-7.212837-10.29076-37.613919 7.72219-10.304054 14.40707 1.549729v-7.212838l20.06287-32.461891-18.00472-25.760136 2.23927-21.036756 26.44315-4.995406-10.47188-34.9595943z"/><path d="m795.403983 341.929996 4.241821 6.096928-6.554766 4.196916-2.312944 15.622323-5.385491 4.196916 2.697013 4.956921 17.71835-5.72537 14.645804-2.280015 6.54623-12.193856-20.031294-26.693061.384068-9.905397-11.180655-12.202301-10.011379 11.442296-1.16074 7.616938 8.099573 5.72537z"/><path d="m767 360.587175 1.907173 5.412825 18.28692-6.131342v-12.613958l3.805907-7.560391-8-4.694309-14.860759 11.536183z"/><path d="m857.66 427 4.696-2.32687.352-5.67313-5.416 2.32687z"/><path d="m858.556 445.809475 5.056 1.190525-1.8-17-5.424 3.562822z"/><path d="m1359.4176 67.335056-5.61173-5.335056-2.80587.9982773 4.56168 8.3380707 7.00606 9.663652 15.43226-4.6640827-9.81192-8.6653747z"/><path d="m1350.58945 60.9853363 9.02191-2.1087026 1.38864-8.0647115-3.82515-9.4676442-33.66816-.344278-4.50669 14.3736054 24.64625 12.6263946z"/><path d="m1375.56525 40.865869 3.24893 4.134131 8.37554-1.1788413.81028-5.615869-7.83794-6.2052897-12.16206 2.3576826.54538 3.2581864z"/><path d="m1450 524.184727 4 13.815273 4.664-2.906182 1.336-19.636363-4.672-1.457455z"/><path d="m1450.12603 611 6.87397-9.577652-3.43286-3.422348-7.56714 10.948232z"/><path d="m1469.80277 575.132639-1.34256-20.132639-10.78893 2.013264-.67128 17.450971 9.4383 20.132639 6.06574 11.403126 15.49596-5.363335-2.02191-9.397916z"/><path d="m1472.69112 612.499438-.69112 8.998875 10.28454-1.493814 6.86184 11.995501 6.85362-3.752531-6.17072-20.247469z"/><path d="m1377.98053 665.2783-39.26666-32.2783h-11.71387l22.73333 28.158016 26.86667 28.158017 11.02773.683967 1.37227-9.616741z"/><path d="m1463.73798 712 8.26202-3.221061v-5.164537l-40.62437-3.871467-22.72057-7.742935-11.01328 1.935734-7.57627-.642664-2.06551 4.514131 62.65919 14.192799z"/><path d="m1458.664 718.332h6.672v-2.664h-6.672z" mask="url(#c)"/><path d="m1492.336 712.672 4.664-2-2.664-2.672-6.672 1.336-8.664 5.336 2 3.328z" mask="url(#c)"/><path d="m1416.77582 646.90696-11.40659 2.082451-5.36923 6.938727 17.44396 23.606664 6.70549.691373 8.04982 2.773825 8.04982-2.082451 1.34432-8.329804 8.04982-15.26853v-15.26853l3.35677-10.412255-10.06227-7.63843z" mask="url(#c)"/><path d="m1460.042 659.780667-7.042 18.052666 3.83969 13.728 6.39693.719334 2.56492-5.780667 8.31677 6.5 1.91985-5.052667-7.042-12.280666 7.67939-6.5-2.55724-4.333334-9.59923 3.614v-5.052666l20.48092-4.333334-1.91985-5.061333z" mask="url(#c)"/><path d="m1578.45532 720.681108-7.56382 2.051531-9.63645 32.143387-15.1359-12.309186 3.4351-15.050031-27.52207-7.516809-17.20026 17.093356-11.7008-2.051531-28.90107 17.093355-8.25745 12.9985-37.84388 16.412248-.69362 55.391335-3.4351 21.196417 12.38617 9.576547 75.00239-20.51531 10.32181 4.784171 13.76517 24.618371 8.94281 2.051531 1.379 7.525015 17.20026 15.722933 19.95825 4.103062 20.64362-11.619871 34.40052-84.112768-25.45771-42.401041z" mask="url(#c)"/><path d="m1553.672 917-.672 18.920233 6 6.079767 8.672-3.38035 5.328-16.212711h-10z" mask="url(#c)"/><path d="m1654.67677 970.574206-.67677 13.413034 7.46892 2.01276 45.53108-43.604436-5.43862-9.395564z" mask="url(#c)"/><path d="m1728.9635 908.021888-12.276-32.021888-4.51825 2.043776 4.51825 32.700422-9.6875 6.818038 3.875 7.488397-3.224 6.818038 5.1615 6.131329 25.1875-25.890559-1.2865-4.766087z" mask="url(#c)"/><path d="m1485.336 671.664 1.328-3.328h-7.328v2.664z" mask="url(#c)"/><path d="m1503.668 653.544166-4-3.544166-1.336 7.683751 5.336 5.316249z" mask="url(#c)"/><path d="m1496 678.332h-8l1.328 3.336h8.672z" mask="url(#c)"/><path d="m1509.78143 678 5.65571 4 .56286-4-5.64893-4-7.35107.664 1.1325 3.336z" mask="url(#c)"/><path d="m1538 692-4 2 3.336 6z" mask="url(#c)"/><path d="m1537.99728 673.063801-2.71728-8.727328-14.28-1.336473 7.48272 16.770317 10.87728 1.344524 17.68272 9.387514-2.72544 10.740088 15.64272 3.349233.67728 2.689047 14.28.668236 6.80544-8.05104 17.67456 14.089321 10.2 2.01276 3.40272-4.693757-19.72272-18.114841-18.36-15.433845-29.23728-8.05104-10.2 6.706517z" mask="url(#c)"/><path d="m1620.025 689.496101-9.025.655069 1.39167 3.89922 12.5 1.94961 11.10833-9.10078-2.775-3.89922z" mask="url(#c)"/><path d="m1626.416 675-2.168.832 4.84 5.168 2.664-2z" mask="url(#c)"/><path d="m1643.752 693 5.496 2 1-2-5-4z" mask="url(#c)"/><path d="m1659 700.376-4.496-4-1.504 1.248 5.248 4z" mask="url(#c)"/><path d="m1671.624 706.504-4.496-3.504-.752 2 2.752 2z" mask="url(#c)"/><path d="m1682.5 712.628-5.752-4.504-1.248 2 5.752 3.752z" mask="url(#c)"/><path d="m1678 713.624-2.496-2-1.504 1.248 1.752 1.504z" mask="url(#c)"/><path d="m1680 716.5 3 2 1-.752-2-2.248z" mask="url(#c)"/><path d="m1705 792.686755-8.94693-9.686755-1.05307 3.060264 8.68576 9.939736z" mask="url(#c)"/><path d="m1713.376 759.375108-4.496-8.375108-2.256 1.356958 5.256 8.643042z" mask="url(#c)"/><path d="m1718.124 763.748-.752-2.248-1.496 1 .496 2z" mask="url(#c)"/><path d="m1757 761.5 4.60912 3.248 3.39088-5.496-2.66925-2z" mask="url(#c)"/><path d="m1766 751.688 1.03363 4.2 7.58819.424 1.37818-4.624z" mask="url(#c)"/><path d="m1560.11498 364.28652 3.88502-3.64326-3.88502-3.64326-6.11498 8.84326 2.77003 4.15674z" mask="url(#c)"/></g></svg>