<svg height="52" viewBox="0 0 52 52" width="52" xmlns="http://www.w3.org/2000/svg"><g fill="none" fill-rule="evenodd" stroke-linecap="round" stroke-linejoin="round" transform="translate(1 1)"><g stroke="#e4e85c"><path d="m43.5069975 25.7367564s-7.0076574-6.2511992-7.0076574-13.7109635c0-3.87069202 3.1375968-7.00765742 7.0076574-7.00765742s7.0076574 3.1369654 7.0076574 7.00765742c0 7.4597643-7.0076574 13.7109635-7.0076574 13.7109635z"/><path d="m47.1510046 12.0256666c0-2.012381-1.6316261-3.64400711-3.6440071-3.64400711s-3.6440071 1.63162611-3.6440071 3.64400711 1.6316261 3.6440071 3.6440071 3.6440071 3.6440071-1.6316261 3.6440071-3.6440071z"/><path d="m7.85565094 36.5629493c-.01326011-.0517776-.74951246-.1831159-1.40872983-1.1233215-.20079609-.2873026.08524363-.5480849.2948798-.7545639.23489355-.2304736 1.00713764-1.0071377 1.00713764-1.0071377" stroke-width="1.5"/><path d="m19.1318039 24.2924768s.2771997-.273411.5076732-.5076731c.206479-.2102676.4672613-.4963074.7545639-.2948798.9402056.6585859 1.071544 1.3948382 1.1233216 1.4080984.1351269.0353603 9.052873-4.9927507 9.8554259-2.2005484.335923 1.1700477-.3030884 1.7004524-1.9081943 3.0908707-2.6103493 2.2611661-10.0745336 7.8493592-9.8124884 7.866408 2.131722 2.6949614 4.773643 6.4955642 5.065997 6.8845277.1660672.221002.139547.2620452.3782292.225422.5531364-.085875 1.7976933-.3908578 3.9761415-.3908578 1.5943715 0 1.9340831 1.234454 1.1852021 1.6840352-.4028551.2418393-2.4884824 1.1492103-3.3813305 1.6461491.2361565.4167466.7381467 1.4832391.197639 1.9100886-.4268496.5405078-1.4939735.0385175-1.9100887-.1970074-.4969387.892848-1.4043098 2.9778439-1.6461491 3.380699-.4502126.7495124-1.6840352.4091694-1.6840352-1.1845707 0-2.1790796.3049828-3.4230051.3908578-3.976773.0366232-.2380507-.00442-.2121619-.2260534-.3782291-.3889635-.292354-4.1889349-2.934275-6.8845277-5.065997-.0164173-.2614138-5.60524196 7.2021391-7.86577661 9.8124883-1.39041824 1.6051059-1.92082302 2.2447488-3.0908707 1.9081944-2.79283373-.8019215 2.23590871-9.720299 2.20054839-9.8554259-.01326012-.0511462-.74951246-.1824845-1.40872983-1.1233216-.2007961-.2873026.08524362-.5480849.2948798-.7545639.23489354-.2298421.50830458-.5076732.50830458-.5076732"/><path d="m13.8520664 27.9921764c-1.4390387-1.7648587-6.51135009-7.2046649-9.47214534-5.9361134-.38580633.1648043-.69899772.4786271-.8644335.863802-1.26791999 2.9614267 4.17125472 8.0337381 5.93611348 9.4727768" stroke-width="1.5"/><path d="m18.0226265 26.3959738c-.0517776-.0132602-.1831159-.7495125-1.1233215-1.4087299-.2873026-.2007961-.548085.0852437-.754564.2948798-.2304735.2348936-1.0071376 1.0071377-1.0071376 1.0071377" stroke-width="1.5"/></g><path d="m26.0744868 32.7916451c.4281124.777927 1.0197663 1.5167051 1.8178992 2.2119142 5.9664223 5.1960725 15.7637563 1.0166092 15.7637563-7.472393" stroke="#8290a0" stroke-dasharray="1.899 3.798"/><path d="m1.24529197 19.9064713c-7.14404721-18.5749016 18.49786663-28.90579752 24.97385643-9.4424679 1.0305007 3.0984479.8290731 6.1646927.3346601 9.0964419" stroke="#8290a0" stroke-dasharray="1.899 3.798"/></g></svg>