<svg height="793" viewBox="0 0 1285 793" width="1285" xmlns="http://www.w3.org/2000/svg"><g fill="none" fill-rule="evenodd" transform="translate(0 1.447835)"><path d="m9 680.552165c46.7790939-193.249586 206.445761-297.749586 479-313.5 257-14.851562 531.30366-108.781647 672.74219-273.5273435 32.78659-38.1893795 73.69799-69.36432 122.73421-93.5248215" opacity=".896007" stroke="#8290a0" stroke-dasharray="8" stroke-linecap="square"/><g fill-rule="nonzero" transform="matrix(0 -1 1 0 4.115 791.232165)"><path d="m4.905 10.83 1.635-6.3c.18-.69.27-1.395.27-1.395h.03s.09.705.27 1.395l1.635 6.3h2.235l2.745-10.65h-1.995l-1.755 7.365c-.135.6-.18 1.125-.18 1.125h-.03c-.015 0-.03-.51-.195-1.125l-1.89-7.365h-1.68l-1.92 7.365c-.165.615-.18 1.125-.195 1.125h-.03s-.045-.525-.18-1.125l-1.68-7.365h-1.995l2.67 10.65zm16.73 0v-4.47h4.875v4.47h1.935v-10.65h-1.935v4.515h-4.875v-4.515h-1.935v10.65zm17.915 0v-4.455l3.54-6.195h-2.19l-1.65 3.135c-.345.66-.645 1.425-.645 1.425h-.03c-.015.015-.3-.765-.645-1.425l-1.665-3.135h-2.19l3.54 6.195v4.455z" fill="#0d1d22"/><path d="m60.77 11.01c2.565 0 4.29-1.62 4.29-4.005v-6.825h-1.935v6.81c0 1.44-.945 2.25-2.37 2.25s-2.355-.81-2.355-2.235v-6.825h-1.935v6.825c0 2.385 1.725 4.005 4.305 4.005zm13.955 0c2.22 0 3.51-1.425 3.51-3.12 0-3.405-5.01-2.94-5.01-4.83 0-.75.705-1.275 1.605-1.275 1.335 0 2.355.93 2.355.93l.84-1.575-.0224653-.02243056c-.164618-.15965277-1.2325347-1.11756944-3.1575347-1.11756944-2.04 0-3.57 1.32-3.57 3.09 0 3.27 5.025 2.94 5.025 4.845 0 .87-.735 1.29-1.545 1.29-1.5 0-2.655-1.125-2.655-1.125l-1.05 1.455s.0071605.00798354.0213839.02276787l.0637617.06357263c.3248956.31283645 1.5709655 1.3686595 3.5898544 1.3686595z" fill="#e4e85c"/></g><circle cx="10" cy="695.552165" fill="#e4e85c" r="5"/><circle cx="10" cy="695.552165" opacity=".450559" r="9.5" stroke="#e4e85c"/></g></svg>