<svg height="323" viewBox="0 0 1404 323" width="1404" xmlns="http://www.w3.org/2000/svg"><g fill="none" fill-rule="evenodd" transform="translate(0 1.205412)"><circle cx="10" cy="199.794588" fill="#e4e85c" r="5"/><circle cx="10" cy="199.794588" opacity=".450559" r="9.5" stroke="#e4e85c"/><g fill-rule="nonzero" transform="matrix(0 -1 1 0 5.184 321.254588)"><path d="m1.862 10.108.84-2.548h3.486l.84 2.548h1.862l-3.5-9.94h-1.89l-3.5 9.94zm3.878-4.018h-2.604l.882-2.66c.196-.56.42-1.54.42-1.54h.028s.21.98.392 1.54zm12.272 4.018c1.834 0 3.43-.896 3.43-2.884 0-1.008-.518-2.016-1.61-2.338v-.028c.756-.406 1.204-1.204 1.204-2.128 0-1.638-1.274-2.562-3.066-2.562h-3.556v9.94zm-.042-5.88h-1.75v-2.506h1.722c.84 0 1.26.518 1.26 1.232s-.448 1.274-1.232 1.274zm.182 4.326h-1.932v-2.87h1.932c.91 0 1.442.602 1.442 1.428 0 .84-.518 1.442-1.442 1.442zm13.952 1.722c2.926 0 5.138-2.282 5.138-5.208 0-2.842-2.212-5.068-5.138-5.068s-5.138 2.226-5.138 5.068c0 2.926 2.212 5.208 5.138 5.208zm0-1.652c-1.82 0-3.276-1.512-3.276-3.556 0-1.96 1.456-3.416 3.276-3.416s3.276 1.456 3.276 3.416c0 2.044-1.456 3.556-3.276 3.556zm15.1 1.652c2.394 0 4.004-1.512 4.004-3.738v-6.37h-1.806v6.356c0 1.344-.882 2.1-2.212 2.1s-2.198-.756-2.198-2.086v-6.37h-1.806v6.37c0 2.226 1.61 3.738 4.018 3.738zm14.498-.168v-8.386h3.262v-1.554h-8.33v1.554h3.262v8.386z" fill="#eaeaea"/><path d="m82.06 10.276c2.394 0 4.004-1.512 4.004-3.738v-6.37h-1.806v6.356c0 1.344-.882 2.1-2.212 2.1s-2.198-.756-2.198-2.086v-6.37h-1.806v6.37c0 2.226 1.61 3.738 4.018 3.738zm13.308 0c2.072 0 3.276-1.33 3.276-2.912 0-3.178-4.676-2.744-4.676-4.508 0-.7.658-1.19 1.498-1.19 1.246 0 2.198.868 2.198.868l.784-1.47s-1.008-1.064-2.968-1.064c-1.904 0-3.332 1.232-3.332 2.884 0 3.052 4.69 2.744 4.69 4.522 0 .812-.686 1.204-1.442 1.204-1.4 0-2.478-1.05-2.478-1.05l-.98 1.358s1.218 1.358 3.43 1.358z" fill="#e4e85c"/></g><path d="m15 181.095267c31.4070953-63.646888 159.933105-181.095267 349.5-181.095267s277.297069 127.961546 616.618783 159.645129c141.802317 13.240547 293.463507-7.182729 421.979217-70.3428475" opacity=".900209" stroke="#8290a0" stroke-dasharray="8"/></g></svg>