<svg height="159" viewBox="0 0 447 159" width="447" xmlns="http://www.w3.org/2000/svg" xmlns:xlink="http://www.w3.org/1999/xlink"><defs><circle id="a" cx="36" cy="36" r="36"/><mask id="b" height="74" width="74" x="-1" y="-1"><path d="m-1-1h74v74h-74z" fill="#fff"/><use xlink:href="#a"/></mask></defs><g fill="none" fill-rule="evenodd" transform="translate(.374794 1)"><g transform="translate(15.625206)"><use style="stroke:#8290a0;stroke-width:2;opacity:.900141;stroke-linejoin:bevel;stroke-dasharray:8;mask:url(#b)" xlink:href="#a"/><circle cx="36.5" cy="36.5" fill="#e4e85c" r="7.5"/></g><path d="m6.405 111v-1.29h-4.92v-3.405h3.795v-1.29h-3.795v-3.315h4.665v-1.29h-6.15v10.59zm9.467916 0 1.92-3.255c.345-.585.63-1.215.63-1.215h.03s.242449.451837.5289796.958776l.1460204.256224 1.92 3.255h1.68l-3.345-5.46 3.135-5.13h-1.71l-1.665 2.865c-.345.585-.645 1.26-.645 1.26h-.03l-.03852-.07632c-.09888-.19488-.37248-.72768-.63648-1.18368l-1.665-2.865h-1.71l3.135 5.13-3.345 5.46zm16.832916 0v-3.915h2.385c1.935 0 3.33-1.35 3.33-3.36s-1.395-3.315-3.33-3.315h-3.87v10.59zm2.145-5.205h-2.145v-4.095h2.16c1.26 0 2.04.75 2.04 2.025s-.78 2.07-2.055 2.07zm18.422916 5.205v-1.29h-4.74v-9.3h-1.485v10.59zm12.887916.18c3.06 0 5.43-2.43 5.43-5.55 0-3.045-2.37-5.4-5.43-5.4s-5.445 2.355-5.445 5.4c0 3.12 2.385 5.55 5.445 5.55zm0-1.365c-2.16 0-3.915-1.8-3.915-4.185 0-2.31 1.755-4.05 3.915-4.05s3.9 1.74 3.9 4.05c0 2.385-1.74 4.185-3.9 4.185zm15.797916 1.185v-4.215h2.265l2.235 4.215h1.68l-2.25-4.11c-.195-.345-.315-.48-.315-.48v-.03c1.155-.375 1.905-1.515 1.905-2.865 0-1.395-.705-2.46-1.785-2.865-.405-.15-.87-.24-1.98-.24h-3.24v10.59zm2.13-5.505h-2.13v-3.795h1.71c.825 0 1.17.09 1.455.24.54.3.84.855.84 1.635 0 1.185-.72 1.92-1.875 1.92zm19.127916 5.505v-1.29h-4.92v-3.405h3.795v-1.29h-3.795v-3.315h4.665v-1.29h-6.15v10.59z" fill="#efeff1" fill-rule="nonzero"/><path d="m505.623378 195.698111c-117.062553-82.69895-261.020787-153.3904501-417.998172-160.397432" opacity=".900209" stroke="#8290a0" stroke-dasharray="8"/></g></svg>