<svg height="1000" viewBox="0 0 988 1000" width="988" xmlns="http://www.w3.org/2000/svg"><g fill="none" fill-rule="evenodd" transform="translate(1.398438 1.5)"><g fill-rule="nonzero" transform="translate(739.206563 985.67)"><path d="m5.94 12.735v-1.485c-2.505 0-4.065-1.83-4.065-4.02 0-2.13 1.65-4.065 3.825-4.065 1.305 0 2.25.54 2.28 1.32h-1.275c-2.055 0-3.225 1.32-3.225 2.745 0 1.44 1.2 2.79 3.225 2.79h4.155v-1.365h-1.095v-3.75c0-1.725-1.065-3.27-4.125-3.27-3.18 0-5.64 2.475-5.64 5.595 0 3.075 2.37 5.505 5.94 5.505zm2.04-4.08h-1.155c-.87 0-1.455-.66-1.455-1.47 0-.795.585-1.47 1.485-1.47h1.125zm15.905 2.175v-1.665h-4.605v-8.985h-1.935v10.65zm9.425 0c3.285 0 5.43-1.98 5.43-5.34s-2.145-5.31-5.43-5.31h-3.63v10.65zm-.105-1.665h-1.59v-7.32h1.59c2.13 0 3.54 1.275 3.54 3.645 0 2.4-1.38 3.675-3.54 3.675zm14.675 1.845c2.22 0 3.51-1.425 3.51-3.12 0-3.405-5.01-2.94-5.01-4.83 0-.75.705-1.275 1.605-1.275 1.335 0 2.355.93 2.355.93l.84-1.575-.0224653-.02243056c-.164618-.15965277-1.2325347-1.11756944-3.1575347-1.11756944-2.04 0-3.57 1.32-3.57 3.09 0 3.27 5.025 2.94 5.025 4.845 0 .87-.735 1.29-1.545 1.29-1.5 0-2.655-1.125-2.655-1.125l-1.05 1.455s.0071605.00798354.0213839.02276787l.0637617.06357263c.3248956.31283645 1.5709655 1.3686595 3.5898544 1.3686595z" fill="#0d1d22"/><path d="m61.715 10.83v-8.985h3.495v-1.665h-8.925v1.665h3.495v8.985zm11.09 0v-3.975h1.86l2.115 3.975h2.16l-2.19-3.975c-.21-.375-.36-.525-.36-.525v-.03c1.125-.45 1.8-1.635 1.8-2.91 0-1.41-.675-2.43-1.74-2.91-.465-.21-.99-.3-2.145-.3h-3.435v10.65zm1.74-5.655h-1.74v-3.33h1.47c1.515 0 1.95.63 1.95 1.65 0 1.065-.645 1.68-1.68 1.68zm11.105 5.655.9-2.73h3.735l.9 2.73h1.995l-3.75-10.65h-2.025l-3.75 10.65zm4.155-4.305h-2.79l.945-2.85c.21-.6.45-1.65.45-1.65h.03s.225 1.05.42 1.65zm13.01 4.305 3.885-10.65h-2.07l-2.355 6.945c-.21.615-.39 1.56-.405 1.56h-.03c-.015 0-.195-.945-.405-1.56l-2.34-6.945h-2.085l3.885 10.65zm16.085 0v-1.665h-4.68v-2.865h3.585v-1.665h-3.585v-2.79h4.44v-1.665h-6.375v10.65zm12.8 0v-1.665h-4.605v-8.985h-1.935v10.65zm7.73 0v-4.305h3.525v-1.665h-3.525v-3.015h4.185v-1.665h-6.12v10.65zm15.02.18c3.135 0 5.505-2.445 5.505-5.58 0-3.045-2.37-5.43-5.505-5.43s-5.505 2.385-5.505 5.43c0 3.135 2.37 5.58 5.505 5.58zm0-1.77c-1.95 0-3.51-1.62-3.51-3.81 0-2.1 1.56-3.66 3.51-3.66s3.51 1.56 3.51 3.66c0 2.19-1.56 3.81-3.51 3.81zm13.655 1.59v-3.975h1.86l2.115 3.975h2.16l-2.19-3.975c-.21-.375-.36-.525-.36-.525v-.03c1.125-.45 1.8-1.635 1.8-2.91 0-1.41-.675-2.43-1.74-2.91-.465-.21-.99-.3-2.145-.3h-3.435v10.65zm1.74-5.655h-1.74v-3.33h1.47c1.515 0 1.95.63 1.95 1.65 0 1.065-.645 1.68-1.68 1.68zm14.42 5.655v-4.455l3.54-6.195h-2.19l-1.65 3.135c-.345.66-.645 1.425-.645 1.425h-.03c-.015.015-.3-.765-.645-1.425l-1.665-3.135h-2.19l3.54 6.195v4.455zm13.685.18c3.135 0 5.505-2.445 5.505-5.58 0-3.045-2.37-5.43-5.505-5.43s-5.505 2.385-5.505 5.43c0 3.135 2.37 5.58 5.505 5.58zm0-1.77c-1.95 0-3.51-1.62-3.51-3.81 0-2.1 1.56-3.66 3.51-3.66s3.51 1.56 3.51 3.66c0 2.19-1.56 3.81-3.51 3.81zm15.875 1.77c2.565 0 4.29-1.62 4.29-4.005v-6.825h-1.935v6.81c0 1.44-.945 2.25-2.37 2.25s-2.355-.81-2.355-2.235v-6.825h-1.935v6.825c0 2.385 1.725 4.005 4.305 4.005zm15.23-.18v-8.985h3.495v-1.665h-8.925v1.665h3.495v8.985zm11.09 0v-4.47h4.875v4.47h1.935v-10.65h-1.935v4.515h-4.875v-4.515h-1.935v10.65z" fill="#e4e85c"/></g><path d="m0 0c204.304687 40.6484375 255.907202 344.582297 273.578125 428.023437 62.141454 293.428572 284.023438 295.539063 429.023438 334.476563 96.666666 25.958333 152 72.851562 166 140.679688" opacity=".900936" stroke="#8290a0" stroke-dasharray="8" stroke-linecap="square"/><g transform="matrix(1 0 0 -1 858.601562 924.5)"><circle cx="10" cy="10" fill="#e4e85c" r="5"/><circle cx="10" cy="10" opacity=".450559" r="9.5" stroke="#e4e85c"/></g></g></svg>