<?xml version="1.0" encoding="UTF-8"?>
<svg width="52px" height="52px" viewBox="0 0 52 52" version="1.1" xmlns="http://www.w3.org/2000/svg" xmlns:xlink="http://www.w3.org/1999/xlink">
    <title>Quiz_icon</title>
    <g id="Revised-version" stroke="none" stroke-width="1" fill="none" fill-rule="evenodd" stroke-linecap="round" stroke-linejoin="round">
        <g id="Group-17" transform="translate(1.000000, 1.000000)">
            <path d="M43.5069975,25.7367564 C43.5069975,25.7367564 36.4993401,19.4855572 36.4993401,12.0257929 C36.4993401,8.15510088 39.6369369,5.01813548 43.5069975,5.01813548 C47.3770581,5.01813548 50.5146549,8.15510088 50.5146549,12.0257929 C50.5146549,19.4855572 43.5069975,25.7367564 43.5069975,25.7367564 Z" id="Stroke-1" stroke="#E4E85C"></path>
            <path d="M47.1510046,12.0256666 C47.1510046,10.0132856 45.5193785,8.38165949 43.5069975,8.38165949 C41.4946165,8.38165949 39.8629904,10.0132856 39.8629904,12.0256666 C39.8629904,14.0380476 41.4946165,15.6696737 43.5069975,15.6696737 C45.5193785,15.6696737 47.1510046,14.0380476 47.1510046,12.0256666 Z" id="Stroke-3" stroke="#E4E85C"></path>
            <path d="M7.85565094,36.5629493 C7.84239083,36.5111717 7.10613848,36.3798334 6.44692111,35.4396278 C6.24612502,35.1523252 6.53216474,34.8915429 6.74180091,34.6850639 C6.97669446,34.4545903 7.74893855,33.6779262 7.74893855,33.6779262" id="Stroke-5" stroke="#E4E85C" stroke-width="1.5"></path>
            <path d="M19.1318039,24.2924768 C19.1318039,24.2924768 19.4090036,24.0190658 19.6394771,23.7848037 C19.8459561,23.5745361 20.1067384,23.2884963 20.394041,23.4899239 C21.3342466,24.1485098 21.465585,24.8847621 21.5173626,24.8980223 C21.6524895,24.9333826 30.5702356,19.9052716 31.3727885,22.6974739 C31.7087115,23.8675216 31.0697001,24.3979263 29.4645942,25.7883446 C26.8542449,28.0495107 19.3900606,33.6377038 19.6521058,33.6547526 C21.7838278,36.349714 24.4257488,40.1503168 24.7181028,40.5392803 C24.88417,40.7602823 24.8576498,40.8013255 25.096332,40.7647023 C25.6494684,40.6788273 26.8940253,40.3738445 29.0724735,40.3738445 C30.666845,40.3738445 31.0065566,41.6082985 30.2576756,42.0578797 C29.8548205,42.299719 27.7691932,43.20709 26.8763451,43.7040288 C27.1125016,44.1207754 27.6144918,45.1872679 27.0739841,45.6141174 C26.6471345,46.1546252 25.5800106,45.6526349 25.1638954,45.41711 C24.6669567,46.309958 23.7595856,48.3949539 23.5177463,48.797809 C23.0675337,49.5473214 21.8337111,49.2069784 21.8337111,47.6132383 C21.8337111,45.4341587 22.1386939,44.1902332 22.2245689,43.6364653 C22.2611921,43.3984146 22.2201489,43.4243034 21.9985155,43.2582362 C21.609552,42.9658822 17.8095806,40.3239612 15.1139878,38.1922392 C15.0975705,37.9308254 9.50874584,45.3943783 7.24821119,48.0047275 C5.85779295,49.6098334 5.32738817,50.2494763 4.15734049,49.9129219 C1.36450676,49.1110004 6.3932492,40.1926229 6.35788888,40.057496 C6.34462876,40.0063498 5.60837642,39.8750115 4.94915905,38.9341744 C4.74836295,38.6468718 5.03440267,38.3860895 5.24403885,38.1796105 C5.47893239,37.9497684 5.75234343,37.6719373 5.75234343,37.6719373" id="Stroke-7" stroke="#E4E85C"></path>
            <path d="M13.8520664,27.9921764 C12.4130277,26.2273177 7.34071631,20.7875115 4.37992106,22.056063 C3.99411473,22.2208673 3.68092334,22.5346901 3.51548756,22.919865 C2.24756757,25.8812917 7.68674228,30.9536031 9.45160104,32.3926418" id="Stroke-9" stroke="#E4E85C" stroke-width="1.5"></path>
            <path d="M18.0226265,26.3959738 C17.9708489,26.3827136 17.8395106,25.6464613 16.899305,24.9872439 C16.6120024,24.7864478 16.35122,25.0724876 16.144741,25.2821237 C15.9142675,25.5170173 15.1376034,26.2892614 15.1376034,26.2892614" id="Stroke-11" stroke="#E4E85C" stroke-width="1.5"></path>
            <path d="M26.0744868,32.7916451 C26.5025992,33.5695721 27.0942531,34.3083502 27.892386,35.0035593 C33.8588083,40.1996318 43.6561423,36.0201685 43.6561423,27.5311663" id="Stroke-13" stroke="#8290A0" stroke-dasharray="1.899,3.798"></path>
            <path d="M1.24529197,19.9064713 C-5.89875524,1.3315697 19.7431586,-8.99932622 26.2191484,10.4640034 C27.2496491,13.5624513 27.0482215,16.6286961 26.5538085,19.5604453" id="Stroke-15" stroke="#8290A0" stroke-dasharray="1.899,3.798"></path>
        </g>
    </g>
</svg>