<svg height="45" viewBox="0 0 54 45" width="54" xmlns="http://www.w3.org/2000/svg"><path d="m12.7677966 45c6.1779661 0 10.9144068-4.7787611 10.9144068-10.5530973 0-5.9734514-4.1186441-10.1548673-9.8847458-10.1548673-1.029661 0-2.4711864.199115-2.6771186.199115.6177966-6.3716814 6.5898305-14.3362831 13.179661-18.51769907l-7.6194915-5.97345133c-9.47288138 6.57079646-16.6805085 17.7212389-16.6805085 29.8672566 0 9.7566372 5.9720339 15.1327434 12.7677966 15.1327434zm29.7 0c6.1779661 0 11.120339-4.7787611 11.120339-10.5530973 0-5.9734514-4.3245763-10.1548673-10.090678-10.1548673-1.029661 0-2.4711864.199115-2.6771186.199115.8237288-6.3716814 6.5898305-14.3362831 13.179661-18.51769907l-7.6194915-5.97345133c-9.4728814 6.57079646-16.6805085 17.7212389-16.6805085 29.8672566 0 9.7566372 5.9720339 15.1327434 12.7677966 15.1327434z" fill="#e4e85c"/></svg>