<svg height="761" viewBox="0 0 955 761" width="955" xmlns="http://www.w3.org/2000/svg"><g fill="none" fill-rule="evenodd" transform="translate(1.26343 .719609)"><path d="m0 0c64.044349 253.953387 88.2814723 577.520388 350.73657 467.780391 228-95.333334 375.582866-22.5 442.748597 218.5" opacity=".899346" stroke="#8290a0" stroke-dasharray="8"/><circle cx="792.985167" cy="686.280391" fill="#e4e85c" r="5"/><circle cx="792.985167" cy="686.280391" opacity=".450559" r="9.5" stroke="#e4e85c"/><g fill-rule="nonzero" transform="translate(623.51157 748.450391)"><path d="m1.935 10.83v-4.47h4.875v4.47h1.935v-10.65h-1.935v4.515h-4.875v-4.515h-1.935v10.65zm17.915.18c2.565 0 4.29-1.62 4.29-4.005v-6.825h-1.935v6.81c0 1.44-.945 2.25-2.37 2.25s-2.355-.81-2.355-2.235v-6.825h-1.935v6.825c0 2.385 1.725 4.005 4.305 4.005zm12.695-.18.45-5.955c.016875-.264375.0232031-.56460938.0245215-.83663086l-.0001465-.26024414c-.001875-.328125-.009375-.568125-.009375-.568125h.03s.0464063.14765625.1178613.3646582l.0790137.2372168c.114375.339375.260625.755625.388125 1.063125l1.71 4.125h1.695l1.725-4.125c.255-.615.57-1.65.57-1.65h.03s-.03.945.015 1.65l.45 5.955h1.92l-.855-10.65h-2.07l-2.085 5.265c-.24.63-.525 1.56-.525 1.56h-.03s-.1333333-.41333333-.2933333-.87555556l-.0983467-.28028444c-.04992-.14016-.10032-.27816-.14832-.40416l-2.085-5.265h-2.07l-.87 10.65zm16.475 0 .9-2.73h3.735l.9 2.73h1.995l-3.75-10.65h-2.025l-3.75 10.65zm4.155-4.305h-2.79l.945-2.85c.21-.6.45-1.65.45-1.65h.03s.225 1.05.42 1.65zm10.925 4.305v-6.135c0-.63-.105-1.65-.105-1.65h.03s.48 1.035.885 1.65l4.035 6.135h1.92v-10.65h-1.92v6.15c0 .63.105 1.65.105 1.65h-.03s-.48-1.035-.885-1.65l-4.035-6.15h-1.935v10.65zm15.65 0v-10.65h-1.935v10.65zm11.09 0v-8.985h3.495v-1.665h-8.925v1.665h3.495v8.985zm9.2 0 .9-2.73h3.735l.9 2.73h1.995l-3.75-10.65h-2.025l-3.75 10.65zm4.155-4.305h-2.79l.945-2.85c.21-.6.45-1.65.45-1.65h.03s.225 1.05.42 1.65zm10.925 4.305v-3.975h1.86l2.115 3.975h2.16l-2.19-3.975c-.21-.375-.36-.525-.36-.525v-.03c1.125-.45 1.8-1.635 1.8-2.91 0-1.41-.675-2.43-1.74-2.91-.465-.21-.99-.3-2.145-.3h-3.435v10.65zm1.74-5.655h-1.74v-3.33h1.47c1.515 0 1.95.63 1.95 1.65 0 1.065-.645 1.68-1.68 1.68zm12.38 5.655v-10.65h-1.935v10.65zm7.61 0 .9-2.73h3.735l.9 2.73h1.995l-3.75-10.65h-2.025l-3.75 10.65zm4.155-4.305h-2.79l.945-2.85c.21-.6.45-1.65.45-1.65h.03s.225 1.05.42 1.65zm10.925 4.305v-6.135c0-.63-.105-1.65-.105-1.65h.03s.48 1.035.885 1.65l4.035 6.135h1.92v-10.65h-1.92v6.15c0 .63.105 1.65.105 1.65h-.03s-.48-1.035-.885-1.65l-4.035-6.15h-1.935v10.65z" fill="#eaeaea"/><path d="m177.695 10.83v-4.455l3.54-6.195h-2.19l-1.65 3.135c-.345.66-.645 1.425-.645 1.425h-.03c-.015.015-.3-.765-.645-1.425l-1.665-3.135h-2.19l3.54 6.195v4.455zm13.685.18c3.135 0 5.505-2.445 5.505-5.58 0-3.045-2.37-5.43-5.505-5.43s-5.505 2.385-5.505 5.43c0 3.135 2.37 5.58 5.505 5.58zm0-1.77c-1.95 0-3.51-1.62-3.51-3.81 0-2.1 1.56-3.66 3.51-3.66s3.51 1.56 3.51 3.66c0 2.19-1.56 3.81-3.51 3.81zm15.875 1.77c2.565 0 4.29-1.62 4.29-4.005v-6.825h-1.935v6.81c0 1.44-.945 2.25-2.37 2.25s-2.355-.81-2.355-2.235v-6.825h-1.935v6.825c0 2.385 1.725 4.005 4.305 4.005zm15.23-.18v-8.985h3.495v-1.665h-8.925v1.665h3.495v8.985zm11.09 0v-4.47h4.875v4.47h1.935v-10.65h-1.935v4.515h-4.875v-4.515h-1.935v10.65zm25.795 0v-8.985h3.495v-1.665h-8.925v1.665h3.495v8.985zm11.09 0v-3.975h1.86l2.115 3.975h2.16l-2.19-3.975c-.21-.375-.36-.525-.36-.525v-.03c1.125-.45 1.8-1.635 1.8-2.91 0-1.41-.675-2.43-1.74-2.91-.465-.21-.99-.3-2.145-.3h-3.435v10.65zm1.74-5.655h-1.74v-3.33h1.47c1.515 0 1.95.63 1.95 1.65 0 1.065-.645 1.68-1.68 1.68zm11.105 5.655.9-2.73h3.735l.9 2.73h1.995l-3.75-10.65h-2.025l-3.75 10.65zm4.155-4.305h-2.79l.945-2.85c.21-.6.45-1.65.45-1.65h.03s.225 1.05.42 1.65zm13.01 4.305 3.885-10.65h-2.07l-2.355 6.945c-.21.615-.39 1.56-.405 1.56h-.03c-.015 0-.195-.945-.405-1.56l-2.34-6.945h-2.085l3.885 10.65zm16.085 0v-1.665h-4.68v-2.865h3.585v-1.665h-3.585v-2.79h4.44v-1.665h-6.375v10.65zm12.8 0v-1.665h-4.605v-8.985h-1.935v10.65z" fill="#e4e85c"/></g></g></svg>